<svg width="64" height="64" viewBox="0 0 64 64" fill="none" xmlns="http://www.w3.org/2000/svg">
<path d="M56.9537 19.5985H7.05547C3.71673 19.5985 1 22.3039 1 25.6491V47.4749C1 50.8109 3.70758 53.5254 7.05547 53.5254H25.3957L31.9909 59.0002H32.0091L38.6043 53.5254H56.9445C60.2833 53.5254 63 50.82 63 47.4749V25.6491C63 22.313 60.2924 19.5985 56.9445 19.5985H56.9537Z" stroke="#404145" stroke-width="1.6" stroke-linecap="round" stroke-linejoin="round"/>
<path fill-rule="evenodd" clip-rule="evenodd" d="M40.7264 33.555C40.7264 33.756 40.5892 33.9388 40.452 34.0851L36.6467 37.9695L37.5523 43.4625C37.5614 43.5356 37.5614 43.6087 37.5614 43.6819C37.5614 43.9652 37.4334 44.2302 37.1315 44.2302C36.9852 44.2302 36.8388 44.1754 36.7107 44.1023L31.9999 41.5066L27.2891 44.1023C27.1519 44.1754 27.0147 44.2302 26.8683 44.2302C26.5664 44.2302 26.4292 43.9652 26.4292 43.6819C26.4292 43.6087 26.4384 43.5356 26.4475 43.4625L27.3531 37.9695L23.5387 34.0851C23.4106 33.9388 23.2734 33.756 23.2734 33.555C23.2734 33.2259 23.6027 33.098 23.8589 33.0523L29.1185 32.248L31.4785 27.2485C31.57 27.0383 31.7529 26.8007 31.9908 26.8007C32.2286 26.8007 32.4115 27.0383 32.503 27.2485L34.863 32.248L40.1227 33.0523C40.3696 33.098 40.7081 33.2259 40.7081 33.555H40.7264Z" stroke="#404145" stroke-width="1.6" stroke-linecap="round" stroke-linejoin="round"/>
<path fill-rule="evenodd" clip-rule="evenodd" d="M18.9196 35.3008C18.9196 35.4287 18.8281 35.5475 18.7458 35.6389L16.3035 38.1341L16.8798 41.662C16.8798 41.7077 16.8798 41.7534 16.8798 41.7991C16.8798 41.9819 16.7974 42.1556 16.6053 42.1556C16.5139 42.1556 16.4133 42.119 16.3401 42.0733L13.3123 40.4099L10.2846 42.0733C10.1931 42.119 10.1108 42.1556 10.0193 42.1556C9.82724 42.1556 9.73577 41.9819 9.73577 41.7991C9.73577 41.7534 9.73577 41.7077 9.74491 41.662L10.3212 38.1341L7.86973 35.6389C7.7874 35.5475 7.70508 35.4287 7.70508 35.3008C7.70508 35.0905 7.91546 35.0083 8.08011 34.9717L11.4646 34.4599L12.983 31.2518C13.0471 31.1147 13.1568 30.9594 13.3123 30.9594C13.4678 30.9594 13.5776 31.1147 13.6416 31.2518L15.1601 34.4599L18.5446 34.9717C18.7092 34.9991 18.9196 35.0814 18.9196 35.3008Z" stroke="#404145" stroke-width="1.6" stroke-linecap="round" stroke-linejoin="round"/>
<path fill-rule="evenodd" clip-rule="evenodd" d="M56.2956 35.3008C56.2956 35.4287 56.2041 35.5475 56.1218 35.6389L53.6795 38.1341L54.2557 41.662C54.2557 41.7077 54.2557 41.7534 54.2557 41.7991C54.2557 41.9819 54.1734 42.1556 53.9813 42.1556C53.8898 42.1556 53.7892 42.119 53.7161 42.0733L50.6883 40.4099L47.6606 42.0733C47.5691 42.119 47.4868 42.1556 47.3953 42.1556C47.2032 42.1556 47.1117 41.9819 47.1117 41.7991C47.1117 41.7534 47.1117 41.7077 47.1209 41.662L47.6972 38.1341L45.2457 35.6389C45.1634 35.5475 45.0811 35.4287 45.0811 35.3008C45.0811 35.0905 45.2914 35.0083 45.4561 34.9717L48.8406 34.4599L50.359 31.2518C50.423 31.1147 50.5328 30.9594 50.6883 30.9594C50.8438 30.9594 50.9536 31.1147 51.0176 31.2518L52.5361 34.4599L55.9205 34.9717C56.0852 34.9991 56.2956 35.0814 56.2956 35.3008Z" stroke="#404145" stroke-width="1.6" stroke-linecap="round" stroke-linejoin="round"/>
<path d="M41.4695 6.23804L38.7871 13.4345" stroke="#404145" stroke-width="1.6" stroke-linecap="round" stroke-linejoin="round"/>
<path d="M32 4V11.1964" stroke="#404145" stroke-width="1.6" stroke-linecap="round" stroke-linejoin="round"/>
<path d="M22.5312 6.23804L25.2137 13.4345" stroke="#404145" stroke-width="1.6" stroke-linecap="round" stroke-linejoin="round"/>
</svg>
