<svg width="64" height="64" viewBox="0 0 64 64" fill="none" xmlns="http://www.w3.org/2000/svg">
<path d="M32.3115 62.623C49.0521 62.623 62.623 49.0521 62.623 32.3115C62.623 15.5709 49.0521 2 32.3115 2C15.5709 2 2 15.5709 2 32.3115C2 49.0521 15.5709 62.623 32.3115 62.623Z" stroke="#404145" stroke-width="1.6" stroke-miterlimit="10" stroke-linecap="round" stroke-linejoin="round"/>
<path d="M32.3111 56.4176C45.6245 56.4176 56.4171 45.625 56.4171 32.3116C56.4171 18.9982 45.6245 8.20557 32.3111 8.20557C18.9977 8.20557 8.20508 18.9982 8.20508 32.3116C8.20508 45.625 18.9977 56.4176 32.3111 56.4176Z" stroke="#404145" stroke-width="1.6" stroke-miterlimit="10" stroke-linecap="round" stroke-linejoin="round"/>
<path d="M32.3119 34.8452C33.7112 34.8452 34.8455 33.7108 34.8455 32.3116C34.8455 30.9123 33.7112 29.778 32.3119 29.778C30.9127 29.778 29.7783 30.9123 29.7783 32.3116C29.7783 33.7108 30.9127 34.8452 32.3119 34.8452Z" fill="#404145"/>
<path d="M40.5733 17.4954L32.3115 32.3115V51.8551" stroke="#404145" stroke-width="1.6" stroke-miterlimit="10" stroke-linecap="round" stroke-linejoin="round"/>
</svg>
