<svg width="64" height="64" viewBox="0 0 64 64" fill="none" xmlns="http://www.w3.org/2000/svg">
<path d="M31.82 59.64C16.46 59.64 4 47.19 4 31.82C4 24.75 6.63 18.3 10.97 13.4" stroke="#404145" stroke-width="1.6" stroke-linecap="round" stroke-linejoin="round"/>
<path d="M12.2201 17.66L12.1401 11.76L6.62012 13.84" stroke="#404145" stroke-width="1.6" stroke-linecap="round" stroke-linejoin="round"/>
<path d="M31.7803 4C47.1403 4 59.6003 16.45 59.6003 31.82C59.6003 38.89 56.9703 45.34 52.6303 50.24" stroke="#404145" stroke-width="1.6" stroke-linecap="round" stroke-linejoin="round"/>
<path d="M51.3799 45.98L51.4599 51.88L56.9699 49.79" stroke="#404145" stroke-width="1.6" stroke-linecap="round" stroke-linejoin="round"/>
<path d="M31.75 50.3201C41.9673 50.3201 50.25 42.0373 50.25 31.8201C50.25 21.6028 41.9673 13.3201 31.75 13.3201C21.5327 13.3201 13.25 21.6028 13.25 31.8201C13.25 42.0373 21.5327 50.3201 31.75 50.3201Z" stroke="#404145" stroke-width="1.6" stroke-linecap="round" stroke-linejoin="round"/>
<path d="M19.25 45.5356C19.25 45.5356 22.0566 35.9566 31.3993 35.9566C40.7413 35.9566 43.5481 45.5356 43.5481 45.5356M37.3957 27.2466C37.3957 30.5585 34.7109 33.2433 31.399 33.2433C28.0872 33.2433 25.4024 30.5585 25.4024 27.2466C25.4024 23.9348 28.0872 21.25 31.399 21.25C34.7109 21.25 37.3957 23.9348 37.3957 27.2466Z" stroke="#404145" stroke-width="1.6"/>
</svg>
