<svg width="64" height="64" viewBox="0 0 64 64" fill="none" xmlns="http://www.w3.org/2000/svg">
<path d="M16.1699 29.2482V33.8997C16.1699 43.2093 20.9135 51.878 28.7825 56.9768L38.0848 63.0001L47.387 56.9768C55.256 51.8872 59.9996 43.2093 59.9996 33.8997V19.171L38.0848 12.2964L26.4998 15.9306" stroke="#404145" stroke-width="1.6" stroke-linecap="round" stroke-linejoin="round"/>
<path d="M20.7282 8.49994V5.51289C20.7282 3.02302 18.6846 1 16.1695 1H16.1602C13.6451 1 11.6016 3.02302 11.6016 5.51289V8.49994" stroke="#404145" stroke-width="1.6" stroke-linecap="round" stroke-linejoin="round"/>
<path d="M9.2627 8.80261H23.0684C24.9883 8.80271 26.5311 10.3415 26.5312 12.2225V25.8895C26.5312 27.7707 24.9883 29.3094 23.0684 29.3094H9.2627C7.34266 29.3094 5.7998 27.7707 5.7998 25.8895V12.2225C5.79994 10.3415 7.34274 8.80264 9.2627 8.80261Z" stroke="#404145" stroke-width="1.6" stroke-linecap="round" stroke-linejoin="round"/>
<path d="M16.1611 16.0525C17.846 16.0527 19.1982 17.4031 19.1982 19.0515C19.1982 19.7295 18.9713 20.3549 18.5859 20.8582L18.4111 21.0662C17.8554 21.6709 17.0544 22.0504 16.1611 22.0505C14.476 22.0505 13.123 20.7002 13.123 19.0515C13.1231 17.4029 14.476 16.0525 16.1611 16.0525Z" stroke="#404145" stroke-width="1.6" stroke-linecap="round" stroke-linejoin="round"/>
<path d="M31 36.5L36 41L46 32" stroke="#404145" stroke-width="1.6" stroke-linecap="round" stroke-linejoin="round"/>
</svg>
