<svg width="64" height="64" viewBox="0 0 64 64" fill="none" xmlns="http://www.w3.org/2000/svg">
<path d="M26.187 42.2141H58.6394C61.0474 42.2141 62.9994 40.3329 62.9994 38.0123V11.2018C62.9994 8.88121 61.0474 7 58.6394 7H17.3874C14.9794 7 13.0273 8.88121 13.0273 11.2018V28.7743" stroke="#404145" stroke-width="1.6"/>
<path d="M45.1152 29.2043H56.0994" stroke="#404145" stroke-width="1.6" stroke-miterlimit="10"/>
<path d="M13.5928 17.1493L62.999 17.1493" stroke="#404145" stroke-width="1.6" stroke-miterlimit="10"/>
<path d="M13.5928 22.9618L62.999 22.9618" stroke="#404145" stroke-width="1.6" stroke-miterlimit="10"/>
<path d="M26.2246 32.1256V40.0475C26.2246 44.9856 23.7209 49.611 19.5215 52.441L19.1094 52.7096L14.0117 55.9215L8.91602 52.7096C4.46801 49.9039 1.79984 45.1446 1.7998 40.0475V32.1256L14.0117 28.3961L26.2246 32.1256Z" stroke="#404145" stroke-width="1.6"/>
<path d="M9 40.5955L12.387 44.2321L18.7377 37.868" stroke="#404145" stroke-width="1.6" stroke-linecap="round" stroke-linejoin="round"/>
</svg>
