<svg xmlns="http://www.w3.org/2000/svg" width="16" height="16" fill="currentColor" viewBox="0 0 16 16"><path d="M8 5.75a2.25 2.25 0 1 0 0 4.5 2.25 2.25 0 0 0 0-4.5m0-1.5a3.75 3.75 0 1 1 0 7.5 3.75 3.75 0 0 1 0-7.5m4.875-.188a.938.938 0 1 1-1.876-.001.938.938 0 0 1 1.876 0M8 2c-1.856 0-2.158.005-3.022.043-.588.028-.982.107-1.348.25-.326.125-.56.276-.81.526a2.2 2.2 0 0 0-.528.811c-.142.367-.222.761-.249 1.348C2.005 5.806 2 6.096 2 8c0 1.856.005 2.158.043 3.021.028.588.107.983.249 1.348.127.326.278.562.527.81.252.253.487.403.81.528.37.143.764.223 1.35.25C5.805 13.995 6.095 14 8 14c1.856 0 2.158-.005 3.021-.043.587-.028.982-.107 1.348-.25.326-.125.562-.277.81-.526a2.2 2.2 0 0 0 .528-.81c.143-.37.223-.764.25-1.35C13.995 10.195 14 9.905 14 8c0-1.856-.005-2.158-.043-3.021-.028-.587-.107-.983-.25-1.35a2.2 2.2 0 0 0-.526-.81 2.2 2.2 0 0 0-.811-.527c-.367-.142-.761-.222-1.348-.249C10.194 2.005 9.904 2 8 2M8 .5c2.037 0 2.292.007 3.092.045.798.037 1.342.163 1.82.349.495.19.912.448 1.33.865.415.417.673.835.864 1.329.185.477.312 1.022.349 1.82.036.8.045 1.055.045 3.092s-.008 2.292-.045 3.092c-.037.798-.164 1.342-.349 1.82-.19.495-.448.912-.865 1.33a3.7 3.7 0 0 1-1.328.864c-.479.185-1.023.312-1.821.349-.8.036-1.055.045-3.092.045s-2.292-.008-3.092-.045c-.798-.037-1.342-.164-1.82-.349a3.7 3.7 0 0 1-1.33-.865 3.7 3.7 0 0 1-.864-1.328c-.186-.479-.311-1.023-.349-1.821C.509 10.292.5 10.037.5 8s.007-2.292.045-3.092c.037-.799.163-1.342.349-1.82a3.7 3.7 0 0 1 .865-1.33A3.7 3.7 0 0 1 3.088.895C3.566.708 4.108.583 4.908.545 5.708.509 5.963.5 8 .5"/></svg>