<svg xmlns="http://www.w3.org/2000/svg" width="16" height="16" fill="currentColor" viewBox="0 0 16 16"><path d="M9.025.57a7.502 7.502 0 0 0-4.027 14.306 5.8 5.8 0 0 1 .122-1.719c.138-.629.972-4.097.972-4.097a2.8 2.8 0 0 1-.244-1.183c0-1.114.643-1.945 1.443-1.945a1 1 0 0 1 1.006 1.131c0 .675-.433 1.697-.66 2.655a1.158 1.158 0 0 0 1.181 1.442c1.424 0 2.378-1.823 2.378-3.976 0-1.65-1.093-2.885-3.107-2.885a3.56 3.56 0 0 0-3.698 3.595 2.22 2.22 0 0 0 .486 1.477.36.36 0 0 1 .122.416c-.035.138-.122.467-.156.589a.265.265 0 0 1-.382.19c-1.039-.416-1.528-1.558-1.528-2.862 0-2.135 1.789-4.692 5.366-4.692 2.847 0 4.739 2.083 4.739 4.31 0 2.932-1.632 5.137-4.045 5.137a2.15 2.15 0 0 1-1.84-.935s-.434 1.737-.52 2.066a6 6 0 0 1-.763 1.598 7.2 7.2 0 0 0 2.134.312 7.49 7.49 0 0 0 7.497-7.502A7.5 7.5 0 0 0 9.025.571"/></svg>