<svg width="64" height="60" viewBox="0 0 64 60" fill="none" xmlns="http://www.w3.org/2000/svg">
<path d="M61.4618 22.2851C62.4538 23.6465 62.4773 24.7847 62.2877 25.3848L44.7293 37.9745C41.5544 40.2528 37.5287 39.3701 37.5287 39.3701C37.5287 39.3701 37.9454 35.2997 41.1316 33.0232L58.69 20.4335C59.3218 20.454 60.4055 20.8217 61.3974 22.1831L61.4618 22.2851Z" stroke="#404145" stroke-width="1.6" stroke-miterlimit="10" stroke-linecap="round" stroke-linejoin="round"/>
<path d="M55.8936 22.3712L59.5025 27.3242" stroke="#404145" stroke-width="1.6" stroke-miterlimit="10" stroke-linecap="round" stroke-linejoin="round"/>
<path d="M58.1289 1C60.3851 1 62.0161 2.80744 61.7851 5.04651L61.3637 9.09302H53.5" stroke="#404145" stroke-width="1.6" stroke-linecap="round" stroke-linejoin="round"/>
<path d="M42.6072 59C45.6109 59 48.2885 56.5856 48.6012 53.6047L50.2676 39.3471M9.3208 52.2558L14.2139 5.04651C14.4449 2.80744 16.4565 1 18.7127 1H58.129C55.8728 1 53.8612 2.80744 53.6301 5.04651L52.1997 20.1736" stroke="#404145" stroke-width="1.6" stroke-linecap="round" stroke-linejoin="round"/>
<path d="M37.7276 53.6045L37.8636 52.2556H1.16565L1.02973 53.6045C0.717121 56.5854 2.9054 58.9998 5.90919 58.9998H42.6071C39.6033 58.9998 37.415 56.5854 37.7276 53.6045Z" stroke="#404145" stroke-width="1.6" stroke-linecap="round" stroke-linejoin="round"/>
<path d="M43.1367 14.4883H22.749" stroke="#404145" stroke-width="1.6" stroke-linecap="round" stroke-linejoin="round"/>
<path d="M42.5801 19.8835H22.1924" stroke="#404145" stroke-width="1.6" stroke-linecap="round" stroke-linejoin="round"/>
<path d="M42.0225 25.2789H21.6348" stroke="#404145" stroke-width="1.6" stroke-linecap="round" stroke-linejoin="round"/>
<path d="M33.3103 30.6743H21.0776" stroke="#404145" stroke-width="1.6" stroke-linecap="round" stroke-linejoin="round"/>
</svg>
