<svg width="58" height="58" viewBox="0 0 58 58" fill="none" xmlns="http://www.w3.org/2000/svg">
<path d="M28.82 56.64C13.46 56.64 1 44.19 1 28.82C1 21.75 3.63 15.3 7.97 10.4" stroke="#404145" stroke-width="1.6" stroke-linecap="round" stroke-linejoin="round"/>
<path d="M9.22012 14.66L9.14012 8.76001L3.62012 10.84" stroke="#404145" stroke-width="1.6" stroke-linecap="round" stroke-linejoin="round"/>
<path d="M28.7803 1C44.1403 1 56.6003 13.45 56.6003 28.82C56.6003 35.89 53.9703 42.34 49.6303 47.24" stroke="#404145" stroke-width="1.6" stroke-linecap="round" stroke-linejoin="round"/>
<path d="M48.3804 42.98L48.4604 48.88L53.9704 46.79" stroke="#404145" stroke-width="1.6" stroke-linecap="round" stroke-linejoin="round"/>
<path d="M28.75 47.32C38.9673 47.32 47.25 39.0373 47.25 28.82C47.25 18.6027 38.9673 10.32 28.75 10.32C18.5327 10.32 10.25 18.6027 10.25 28.82C10.25 39.0373 18.5327 47.32 28.75 47.32Z" stroke="#404145" stroke-width="1.6" stroke-linecap="round" stroke-linejoin="round"/>
<path d="M22 27.9554L26.7336 33.2292L35.6092 24" stroke="#404145" stroke-width="1.6" stroke-linecap="round" stroke-linejoin="round"/>
</svg>
