<svg width="64" height="55" viewBox="0 0 64 55" fill="none" xmlns="http://www.w3.org/2000/svg">
<path d="M11.3333 11.3694H6.69395C5.45676 11.3694 4.44452 12.4063 4.44452 13.6737V49.3912H59.5556V13.6737C59.5556 12.4063 58.5434 11.3694 57.3062 11.3694H53.1364" stroke="#404145" stroke-width="1.6"/>
<path d="M62.9999 49.3914H39.4827L38.4137 50.3131H25.5861L24.5172 49.3914H0.999939V51.2348C0.999939 52.8018 2.38959 54.0001 4.20684 54.0001H59.793C61.6103 54.0001 62.9999 52.8018 62.9999 51.2348V49.3914Z" stroke="#404145" stroke-width="1.6" stroke-miterlimit="10"/>
<path d="M49.9709 31.4489H36.4927L31.9999 36.8222L27.5072 31.4489H14.0289C12.5373 31.4489 11.3333 30.2488 11.3333 28.7622V3.68666C11.3333 2.20004 12.5373 1 14.0289 1H49.9709C51.4625 1 52.6666 2.20004 52.6666 3.68666V28.7622C52.6666 30.2399 51.4625 31.4489 49.9709 31.4489Z" stroke="#404145" stroke-width="1.6" stroke-miterlimit="10" stroke-linejoin="round"/>
<path d="M20.0002 31.2856C20.0002 31.2856 22.8069 21.7066 32.1495 21.7066C41.4916 21.7066 44.2983 31.2856 44.2983 31.2856M38.1459 12.9966C38.1459 16.3085 35.4611 18.9933 32.1493 18.9933C28.8374 18.9933 26.1526 16.3085 26.1526 12.9966C26.1526 9.68478 28.8374 7 32.1493 7C35.4611 7 38.1459 9.68478 38.1459 12.9966Z" stroke="#404145" stroke-width="1.6"/>
</svg>
