<svg width="98" height="65" viewBox="0 0 98 65" fill="none" xmlns="http://www.w3.org/2000/svg">
<path d="M31.0015 34.5483V54.999H87.0001V24.9998H46.6617" stroke="#404145" stroke-width="1.59996" stroke-miterlimit="10" stroke-linecap="round" stroke-linejoin="round"/>
<path d="M42.0013 33.9995L75.8247 33.9995" stroke="#404145" stroke-width="1.59996" stroke-miterlimit="10" stroke-linecap="square" stroke-linejoin="round"/>
<path d="M42.0013 39.8972L75.8247 39.8972" stroke="#404145" stroke-width="1.59996" stroke-miterlimit="10" stroke-linecap="square" stroke-linejoin="round"/>
<path d="M42.0015 45.4966L57.5038 45.4966" stroke="#404145" stroke-width="1.59996" stroke-miterlimit="10" stroke-linecap="square" stroke-linejoin="round"/>
<path d="M35.8456 19.0415L33.6618 23.3427L29.3073 25.4997L33.6618 27.6567L35.8456 31.9579L38.0163 27.6567L42.3839 25.4997L38.0163 23.3427L35.8456 19.0415Z" stroke="#404145" stroke-width="1.59996" stroke-miterlimit="10" stroke-linecap="round" stroke-linejoin="round"/>
<path d="M18.846 10L16.2307 15.1666L11.0001 17.7498L16.2307 20.3331L18.846 25.4997L21.4614 20.3331L26.692 17.7498L21.4614 15.1666L18.846 10Z" stroke="#404145" stroke-width="1.59996" stroke-miterlimit="10" stroke-linecap="round" stroke-linejoin="round"/>
<path d="M22.7689 29.3748V37.1246" stroke="#404145" stroke-width="1.59996" stroke-miterlimit="10" stroke-linecap="round" stroke-linejoin="round"/>
<path d="M18.846 33.2498H26.692" stroke="#404145" stroke-width="1.59996" stroke-miterlimit="10" stroke-linecap="round" stroke-linejoin="round"/>
</svg>
