<svg width="65" height="65" viewBox="0 0 65 65" fill="none" xmlns="http://www.w3.org/2000/svg">
<path d="M35.6808 44.5158L42.4829 48.7693L50.7674 43.5888C57.7754 39.2114 62 31.7478 62 23.741V11.0733L42.4829 5.16064L22.9657 11.0733V23.741C22.9657 25.2674 23.1192 26.7739 23.4163 28.2428" stroke="#404145" stroke-width="1.48086"/>
<path d="M34.9647 24.5571L40.0449 29.9682L49.5703 20.4988" stroke="#404145" stroke-width="1.48086" stroke-linecap="round" stroke-linejoin="round"/>
<path d="M20.4911 27.7053C29.0226 27.7053 35.9216 34.5267 35.9218 42.9202C35.9218 51.3139 29.0228 58.136 20.4911 58.136C11.9597 58.1358 5.06049 51.3138 5.06049 42.9202C5.06072 34.5268 11.9598 27.7055 20.4911 27.7053Z" stroke="#404145" stroke-width="1.48086" stroke-miterlimit="10" stroke-linecap="round"/>
<path d="M25.9675 44.8975C24.8108 47.6364 22.1505 49.4624 18.9118 49.4624C15.7889 49.4624 13.0129 47.6364 11.8562 44.8975" stroke="#404145" stroke-width="1.48086" stroke-miterlimit="10" stroke-linecap="round"/>
<path d="M27.3832 38.2312C27.0211 39.0886 26.1883 39.6603 25.1744 39.6603C24.1968 39.6603 23.3278 39.0886 22.9657 38.2312" stroke="#404145" stroke-width="1.48086" stroke-miterlimit="10" stroke-linecap="round"/>
<path d="M14.858 38.2312C14.4959 39.0886 13.6631 39.6603 12.6492 39.6603C11.6715 39.6603 10.8025 39.0886 10.4404 38.2312" stroke="#404145" stroke-width="1.48086" stroke-miterlimit="10" stroke-linecap="round"/>
</svg>
